<mxfile host="Electron" agent="Mozilla/5.0 (Macintosh; Intel Mac OS X 10_15_7) AppleWebKit/537.36 (KHTML, like Gecko) draw.io/24.7.8 Chrome/128.0.6613.36 Electron/32.0.1 Safari/537.36" version="24.7.8">
  <diagram id="R2lEEEUBdFMjLlhIrx00" name="Page-1">
    <mxGraphModel dx="969" dy="684" grid="1" gridSize="10" guides="1" tooltips="1" connect="1" arrows="1" fold="1" page="1" pageScale="1" pageWidth="850" pageHeight="1100" math="0" shadow="0" extFonts="Permanent Marker^https://fonts.googleapis.com/css?family=Permanent+Marker">
      <root>
        <mxCell id="0" />
        <mxCell id="1" parent="0" />
        <mxCell id="_anNKZpRWvxoUrWxLNO4-1" value="" style="rounded=1;whiteSpace=wrap;html=1;" vertex="1" parent="1">
          <mxGeometry x="165" y="150" width="560" height="330" as="geometry" />
        </mxCell>
        <mxCell id="_anNKZpRWvxoUrWxLNO4-2" value="Система &quot;самовар&quot;" style="text;html=1;align=center;verticalAlign=middle;resizable=0;points=[];autosize=1;strokeColor=none;fillColor=none;" vertex="1" parent="1">
          <mxGeometry x="380" y="110" width="130" height="30" as="geometry" />
        </mxCell>
        <mxCell id="_anNKZpRWvxoUrWxLNO4-3" value="" style="rounded=0;whiteSpace=wrap;html=1;" vertex="1" parent="1">
          <mxGeometry x="220" y="198" width="120" height="60" as="geometry" />
        </mxCell>
        <mxCell id="_anNKZpRWvxoUrWxLNO4-4" value="" style="rounded=0;whiteSpace=wrap;html=1;" vertex="1" parent="1">
          <mxGeometry x="540" y="198" width="120" height="60" as="geometry" />
        </mxCell>
        <mxCell id="_anNKZpRWvxoUrWxLNO4-5" value="" style="rounded=0;whiteSpace=wrap;html=1;" vertex="1" parent="1">
          <mxGeometry x="220" y="345" width="120" height="60" as="geometry" />
        </mxCell>
        <mxCell id="_anNKZpRWvxoUrWxLNO4-6" value="" style="rounded=0;whiteSpace=wrap;html=1;" vertex="1" parent="1">
          <mxGeometry x="550" y="345" width="120" height="60" as="geometry" />
        </mxCell>
        <mxCell id="_anNKZpRWvxoUrWxLNO4-7" value="Подсистема нагрева" style="text;html=1;align=center;verticalAlign=middle;resizable=0;points=[];autosize=1;strokeColor=none;fillColor=none;" vertex="1" parent="1">
          <mxGeometry x="210" y="170" width="140" height="30" as="geometry" />
        </mxCell>
        <mxCell id="_anNKZpRWvxoUrWxLNO4-8" value="Подсистема кипячения воды" style="text;html=1;align=center;verticalAlign=middle;resizable=0;points=[];autosize=1;strokeColor=none;fillColor=none;" vertex="1" parent="1">
          <mxGeometry x="185" y="310" width="190" height="30" as="geometry" />
        </mxCell>
        <mxCell id="_anNKZpRWvxoUrWxLNO4-9" value="Подсистема заварки чая" style="text;html=1;align=center;verticalAlign=middle;resizable=0;points=[];autosize=1;strokeColor=none;fillColor=none;fontSize=10;" vertex="1" parent="1">
          <mxGeometry x="535" y="310" width="140" height="30" as="geometry" />
        </mxCell>
        <mxCell id="_anNKZpRWvxoUrWxLNO4-10" value="" style="rounded=0;whiteSpace=wrap;html=1;" vertex="1" parent="1">
          <mxGeometry x="380" y="285" width="120" height="60" as="geometry" />
        </mxCell>
        <mxCell id="_anNKZpRWvxoUrWxLNO4-11" value="Подсистема корпус" style="text;html=1;align=center;verticalAlign=middle;resizable=0;points=[];autosize=1;strokeColor=none;fillColor=none;" vertex="1" parent="1">
          <mxGeometry x="380" y="250" width="130" height="30" as="geometry" />
        </mxCell>
        <mxCell id="_anNKZpRWvxoUrWxLNO4-12" value="Подсистема управления" style="text;html=1;align=center;verticalAlign=middle;resizable=0;points=[];autosize=1;strokeColor=none;fillColor=none;" vertex="1" parent="1">
          <mxGeometry x="520" y="168" width="160" height="30" as="geometry" />
        </mxCell>
        <mxCell id="_anNKZpRWvxoUrWxLNO4-13" value="Краник" style="text;html=1;align=center;verticalAlign=middle;resizable=0;points=[];autosize=1;strokeColor=none;fillColor=none;" vertex="1" parent="1">
          <mxGeometry x="560" y="220" width="70" height="30" as="geometry" />
        </mxCell>
        <mxCell id="_anNKZpRWvxoUrWxLNO4-14" value="Подача тяги" style="text;html=1;align=center;verticalAlign=middle;resizable=0;points=[];autosize=1;strokeColor=none;fillColor=none;" vertex="1" parent="1">
          <mxGeometry x="550" y="200" width="90" height="30" as="geometry" />
        </mxCell>
        <mxCell id="_anNKZpRWvxoUrWxLNO4-15" value="Резервуар" style="text;html=1;align=center;verticalAlign=middle;resizable=0;points=[];autosize=1;strokeColor=none;fillColor=none;" vertex="1" parent="1">
          <mxGeometry x="240" y="360" width="80" height="30" as="geometry" />
        </mxCell>
        <mxCell id="_anNKZpRWvxoUrWxLNO4-16" value="Вода" style="text;html=1;align=center;verticalAlign=middle;resizable=0;points=[];autosize=1;strokeColor=none;fillColor=none;" vertex="1" parent="1">
          <mxGeometry x="255" y="510" width="50" height="30" as="geometry" />
        </mxCell>
        <mxCell id="_anNKZpRWvxoUrWxLNO4-17" value="" style="endArrow=classic;html=1;rounded=0;exitX=0.58;exitY=0.067;exitDx=0;exitDy=0;exitPerimeter=0;entryX=0.5;entryY=1;entryDx=0;entryDy=0;" edge="1" parent="1" source="_anNKZpRWvxoUrWxLNO4-16" target="_anNKZpRWvxoUrWxLNO4-5">
          <mxGeometry width="50" height="50" relative="1" as="geometry">
            <mxPoint x="400" y="430" as="sourcePoint" />
            <mxPoint x="450" y="380" as="targetPoint" />
          </mxGeometry>
        </mxCell>
        <mxCell id="_anNKZpRWvxoUrWxLNO4-18" value="Корпус самовара&lt;div&gt;&lt;br&gt;&lt;/div&gt;" style="text;html=1;align=center;verticalAlign=middle;resizable=0;points=[];autosize=1;strokeColor=none;fillColor=none;" vertex="1" parent="1">
          <mxGeometry x="380" y="300" width="120" height="40" as="geometry" />
        </mxCell>
        <mxCell id="_anNKZpRWvxoUrWxLNO4-19" value="З&lt;span style=&quot;background-color: initial;&quot;&gt;аварник&lt;/span&gt;" style="text;html=1;align=center;verticalAlign=middle;resizable=0;points=[];autosize=1;strokeColor=none;fillColor=none;" vertex="1" parent="1">
          <mxGeometry x="570" y="360" width="80" height="30" as="geometry" />
        </mxCell>
        <mxCell id="_anNKZpRWvxoUrWxLNO4-20" value="Топка" style="text;html=1;align=center;verticalAlign=middle;resizable=0;points=[];autosize=1;strokeColor=none;fillColor=none;" vertex="1" parent="1">
          <mxGeometry x="250" y="210" width="60" height="30" as="geometry" />
        </mxCell>
        <mxCell id="_anNKZpRWvxoUrWxLNO4-21" value="Т&lt;span style=&quot;background-color: initial;&quot;&gt;опливо (угли, дерево)&lt;/span&gt;" style="text;html=1;align=center;verticalAlign=middle;resizable=0;points=[];autosize=1;strokeColor=none;fillColor=none;" vertex="1" parent="1">
          <mxGeometry x="35" y="100" width="150" height="30" as="geometry" />
        </mxCell>
        <mxCell id="_anNKZpRWvxoUrWxLNO4-22" value="" style="endArrow=classic;html=1;rounded=0;exitX=0.467;exitY=0.9;exitDx=0;exitDy=0;exitPerimeter=0;" edge="1" parent="1" source="_anNKZpRWvxoUrWxLNO4-21" target="_anNKZpRWvxoUrWxLNO4-3">
          <mxGeometry width="50" height="50" relative="1" as="geometry">
            <mxPoint x="400" y="430" as="sourcePoint" />
            <mxPoint x="450" y="380" as="targetPoint" />
          </mxGeometry>
        </mxCell>
        <mxCell id="_anNKZpRWvxoUrWxLNO4-23" value="Кипяток" style="text;html=1;align=center;verticalAlign=middle;resizable=0;points=[];autosize=1;strokeColor=none;fillColor=none;" vertex="1" parent="1">
          <mxGeometry x="725" y="100" width="70" height="30" as="geometry" />
        </mxCell>
        <mxCell id="_anNKZpRWvxoUrWxLNO4-24" value="" style="endArrow=classic;html=1;rounded=0;entryX=0.029;entryY=0.867;entryDx=0;entryDy=0;entryPerimeter=0;exitX=1;exitY=0;exitDx=0;exitDy=0;" edge="1" parent="1" source="_anNKZpRWvxoUrWxLNO4-4" target="_anNKZpRWvxoUrWxLNO4-23">
          <mxGeometry width="50" height="50" relative="1" as="geometry">
            <mxPoint x="400" y="430" as="sourcePoint" />
            <mxPoint x="450" y="380" as="targetPoint" />
          </mxGeometry>
        </mxCell>
        <mxCell id="_anNKZpRWvxoUrWxLNO4-25" value="" style="curved=1;endArrow=classic;html=1;rounded=0;exitX=1;exitY=0.5;exitDx=0;exitDy=0;entryX=0;entryY=0.5;entryDx=0;entryDy=0;" edge="1" parent="1" source="_anNKZpRWvxoUrWxLNO4-3" target="_anNKZpRWvxoUrWxLNO4-6">
          <mxGeometry width="50" height="50" relative="1" as="geometry">
            <mxPoint x="400" y="430" as="sourcePoint" />
            <mxPoint x="450" y="380" as="targetPoint" />
            <Array as="points">
              <mxPoint x="440" y="220" />
              <mxPoint x="510" y="290" />
              <mxPoint x="520" y="320" />
              <mxPoint x="540" y="350" />
            </Array>
          </mxGeometry>
        </mxCell>
        <mxCell id="_anNKZpRWvxoUrWxLNO4-26" value="тепло" style="text;html=1;align=center;verticalAlign=middle;resizable=0;points=[];autosize=1;strokeColor=none;fillColor=none;rotation=0;" vertex="1" parent="1">
          <mxGeometry x="365" y="198" width="60" height="30" as="geometry" />
        </mxCell>
        <mxCell id="_anNKZpRWvxoUrWxLNO4-27" value="" style="curved=1;endArrow=classic;html=1;rounded=0;exitX=0.5;exitY=1;exitDx=0;exitDy=0;entryX=0;entryY=0.5;entryDx=0;entryDy=0;" edge="1" parent="1" source="_anNKZpRWvxoUrWxLNO4-3" target="_anNKZpRWvxoUrWxLNO4-5">
          <mxGeometry width="50" height="50" relative="1" as="geometry">
            <mxPoint x="400" y="430" as="sourcePoint" />
            <mxPoint x="450" y="380" as="targetPoint" />
            <Array as="points">
              <mxPoint x="150" y="300" />
            </Array>
          </mxGeometry>
        </mxCell>
        <mxCell id="_anNKZpRWvxoUrWxLNO4-28" value="тепло" style="text;html=1;align=center;verticalAlign=middle;whiteSpace=wrap;rounded=0;rotation=-45;" vertex="1" parent="1">
          <mxGeometry x="165" y="270" width="60" height="30" as="geometry" />
        </mxCell>
        <mxCell id="_anNKZpRWvxoUrWxLNO4-29" value="" style="curved=1;endArrow=classic;html=1;rounded=0;exitX=1;exitY=0.5;exitDx=0;exitDy=0;entryX=1;entryY=0.5;entryDx=0;entryDy=0;" edge="1" parent="1" source="_anNKZpRWvxoUrWxLNO4-5" target="_anNKZpRWvxoUrWxLNO4-4">
          <mxGeometry width="50" height="50" relative="1" as="geometry">
            <mxPoint x="400" y="430" as="sourcePoint" />
            <mxPoint x="450" y="380" as="targetPoint" />
            <Array as="points">
              <mxPoint x="450" y="430" />
              <mxPoint x="670" y="440" />
              <mxPoint x="710" y="380" />
            </Array>
          </mxGeometry>
        </mxCell>
        <mxCell id="_anNKZpRWvxoUrWxLNO4-30" value="Кипяток" style="text;html=1;align=center;verticalAlign=middle;resizable=0;points=[];autosize=1;strokeColor=none;fillColor=none;rotation=15;" vertex="1" parent="1">
          <mxGeometry x="450" y="390" width="70" height="30" as="geometry" />
        </mxCell>
        <mxCell id="_anNKZpRWvxoUrWxLNO4-31" value="" style="endArrow=classic;html=1;rounded=0;exitX=-0.005;exitY=0.409;exitDx=0;exitDy=0;exitPerimeter=0;entryX=0.5;entryY=1;entryDx=0;entryDy=0;" edge="1" parent="1" source="_anNKZpRWvxoUrWxLNO4-18" target="_anNKZpRWvxoUrWxLNO4-3">
          <mxGeometry width="50" height="50" relative="1" as="geometry">
            <mxPoint x="400" y="430" as="sourcePoint" />
            <mxPoint x="340" y="260" as="targetPoint" />
          </mxGeometry>
        </mxCell>
        <mxCell id="_anNKZpRWvxoUrWxLNO4-32" value="Термоизоляция" style="text;html=1;align=center;verticalAlign=middle;resizable=0;points=[];autosize=1;strokeColor=none;fillColor=none;rotation=30;fontSize=9;" vertex="1" parent="1">
          <mxGeometry x="295" y="270" width="90" height="20" as="geometry" />
        </mxCell>
        <mxCell id="_anNKZpRWvxoUrWxLNO4-33" value="" style="endArrow=classic;html=1;rounded=0;entryX=1;entryY=1;entryDx=0;entryDy=0;exitX=0.5;exitY=1;exitDx=0;exitDy=0;" edge="1" parent="1" source="_anNKZpRWvxoUrWxLNO4-10" target="_anNKZpRWvxoUrWxLNO4-5">
          <mxGeometry width="50" height="50" relative="1" as="geometry">
            <mxPoint x="400" y="430" as="sourcePoint" />
            <mxPoint x="450" y="380" as="targetPoint" />
          </mxGeometry>
        </mxCell>
        <mxCell id="_anNKZpRWvxoUrWxLNO4-34" value="Термоизоляция" style="text;html=1;align=center;verticalAlign=middle;resizable=0;points=[];autosize=1;strokeColor=none;fillColor=none;rotation=-30;fontSize=9;" vertex="1" parent="1">
          <mxGeometry x="330" y="360" width="90" height="20" as="geometry" />
        </mxCell>
        <mxCell id="_anNKZpRWvxoUrWxLNO4-35" value="" style="endArrow=classic;html=1;rounded=0;exitX=0.5;exitY=1;exitDx=0;exitDy=0;entryX=0;entryY=1;entryDx=0;entryDy=0;" edge="1" parent="1" source="_anNKZpRWvxoUrWxLNO4-10" target="_anNKZpRWvxoUrWxLNO4-6">
          <mxGeometry width="50" height="50" relative="1" as="geometry">
            <mxPoint x="380" y="290" as="sourcePoint" />
            <mxPoint x="430" y="240" as="targetPoint" />
          </mxGeometry>
        </mxCell>
        <mxCell id="_anNKZpRWvxoUrWxLNO4-36" value="Совмещение" style="text;html=1;align=center;verticalAlign=middle;resizable=0;points=[];autosize=1;strokeColor=none;fillColor=none;fontSize=10;rotation=30;" vertex="1" parent="1">
          <mxGeometry x="470" y="355" width="80" height="30" as="geometry" />
        </mxCell>
        <mxCell id="_anNKZpRWvxoUrWxLNO4-37" value="" style="endArrow=classic;html=1;rounded=0;entryX=1;entryY=1;entryDx=0;entryDy=0;exitX=1.019;exitY=1.052;exitDx=0;exitDy=0;exitPerimeter=0;" edge="1" parent="1" source="_anNKZpRWvxoUrWxLNO4-18" target="_anNKZpRWvxoUrWxLNO4-4">
          <mxGeometry width="50" height="50" relative="1" as="geometry">
            <mxPoint x="380" y="290" as="sourcePoint" />
            <mxPoint x="430" y="240" as="targetPoint" />
          </mxGeometry>
        </mxCell>
        <mxCell id="_anNKZpRWvxoUrWxLNO4-38" value="Вывод" style="text;html=1;align=center;verticalAlign=middle;resizable=0;points=[];autosize=1;strokeColor=none;fillColor=none;rotation=-30;" vertex="1" parent="1">
          <mxGeometry x="535" y="270" width="60" height="30" as="geometry" />
        </mxCell>
        <mxCell id="_anNKZpRWvxoUrWxLNO4-39" value="" style="curved=1;endArrow=classic;html=1;rounded=0;exitX=0;exitY=0.5;exitDx=0;exitDy=0;entryX=1;entryY=0.25;entryDx=0;entryDy=0;" edge="1" parent="1" source="_anNKZpRWvxoUrWxLNO4-4" target="_anNKZpRWvxoUrWxLNO4-3">
          <mxGeometry width="50" height="50" relative="1" as="geometry">
            <mxPoint x="380" y="290" as="sourcePoint" />
            <mxPoint x="430" y="240" as="targetPoint" />
            <Array as="points">
              <mxPoint x="470" y="170" />
            </Array>
          </mxGeometry>
        </mxCell>
        <mxCell id="_anNKZpRWvxoUrWxLNO4-40" value="Увеличение мощности" style="text;html=1;align=center;verticalAlign=middle;whiteSpace=wrap;rounded=0;" vertex="1" parent="1">
          <mxGeometry x="415" y="160" width="60" height="30" as="geometry" />
        </mxCell>
      </root>
    </mxGraphModel>
  </diagram>
</mxfile>
